<svg xmlns="http://www.w3.org/2000/svg" viewBox="0 0 512 512" role="img" aria-label="atNodus icon black">
  <g fill="none" stroke="#09101D" stroke-width="16" stroke-linecap="square" stroke-linejoin="round">
    <path d="M64 128 L448 384"/>
    <path d="M64 128 L64 384"/>
    <path d="M448 384 L448 128"/>
  </g>

  <g fill="none" stroke="#09101D" stroke-width="8" stroke-linecap="square" stroke-linejoin="round">
    <path d="M64 384 L256 448 L256 416"/>
    <path d="M448 128 L256 64 L256 96"/>
    <path d="M160 192 L160 320"/>
    <path d="M352 320 L352 192"/>
  </g>

  <g fill="none" stroke="#09101D" stroke-width="4" stroke-linecap="square" stroke-linejoin="round">
    <path d="M160 320 L256 384 L256 352"/>
    <path d="M352 192 L256 128 L256 160"/>
  </g>

  <g fill="#09101D">
    <circle cx="64" cy="128" r="24"/>
    <circle cx="448" cy="128" r="24"/>
    <circle cx="64" cy="384" r="24"/>
    <circle cx="448" cy="384" r="24"/>
    <circle cx="160" cy="192" r="16"/>
    <circle cx="160" cy="320" r="16"/>
    <circle cx="352" cy="192" r="16"/>
    <circle cx="352" cy="320" r="16"/>
    <circle cx="256" cy="64" r="16"/>
    <circle cx="256" cy="448" r="16"/>
    <circle cx="256" cy="128" r="12"/>
    <circle cx="256" cy="384" r="12"/>
  </g>
</svg>
